<svg width="20" height="20" viewBox="0 0 20 20" fill="none" xmlns="http://www.w3.org/2000/svg">
<path fill-rule="evenodd" clip-rule="evenodd" d="M1.30546 0.321245C1.09151 -0.0068175 0.642113 -0.0994646 0.321183 0.121621C-0.00687935 0.335574 -0.0996135 0.784881 0.121472 1.10581L1.48375 3.15263L3.54476 10.8835C4.07252 12.8732 5.88393 14.2639 7.94502 14.2639H17.1166C17.5088 14.2639 17.8298 13.943 17.8298 13.5507C17.8298 13.1585 17.5088 12.8376 17.1166 12.8376H7.94502C6.82533 12.8376 5.81278 12.2385 5.2565 11.3114L17.3091 10.0847C18.2434 9.99199 18.9993 9.30735 19.1919 8.39448L19.955 4.71445C20.2332 3.38794 19.2133 2.13989 17.8583 2.13989H2.52497L1.30546 0.321245ZM4.76427 9.92783L3.06699 3.56624H17.8583C18.3147 3.56624 18.6499 3.97985 18.5572 4.42202L17.7941 8.10205C17.7299 8.40872 17.4803 8.63696 17.1665 8.66549L4.76427 9.92783Z" fill="black"/>
<path fill-rule="evenodd" clip-rule="evenodd" d="M4.27936 17.8297C4.27936 16.6458 5.23502 15.6902 6.41889 15.6902C7.60277 15.6902 8.55843 16.6458 8.55843 17.8297C8.55843 19.0136 7.60277 19.9693 6.41889 19.9693C5.23502 19.9693 4.27936 19.0136 4.27936 17.8297ZM6.41889 17.1165C6.02665 17.1165 5.70572 17.4375 5.70572 17.8297C5.70572 18.222 6.02665 18.5429 6.41889 18.5429C6.81114 18.5429 7.13207 18.222 7.13207 17.8297C7.13207 17.4375 6.81114 17.1165 6.41889 17.1165Z" fill="black"/>
<path fill-rule="evenodd" clip-rule="evenodd" d="M13.5507 17.8297C13.5507 16.6458 14.5063 15.6902 15.6902 15.6902C16.8741 15.6902 17.8298 16.6458 17.8298 17.8297C17.8298 19.0136 16.8741 19.9693 15.6902 19.9693C14.5063 19.9693 13.5507 19.0136 13.5507 17.8297ZM15.6902 17.1165C15.298 17.1165 14.977 17.4375 14.977 17.8297C14.977 18.222 15.298 18.5429 15.6902 18.5429C16.0825 18.5429 16.4034 18.222 16.4034 17.8297C16.4034 17.4375 16.0825 17.1165 15.6902 17.1165Z" fill="black"/>
</svg>
