<svg width="85" height="92" viewBox="0 0 85 92" fill="none" xmlns="http://www.w3.org/2000/svg">
<path d="M60.9793 58.9191C60.9696 62.2147 60.9607 65.511 60.9527 68.8082C60.9527 71.7874 59.1661 73.5822 56.2135 73.5871L37.7466 73.6141H26.1108C18.9193 73.6141 11.7277 73.6043 4.53619 73.5847C2.27691 73.5847 0.538817 72.2017 0.0855076 70.0538C0.0177933 69.6629 -0.00982659 69.266 0.00308766 68.8695C0.00147158 54.8717 0.000663539 40.8723 0.000663539 26.8712C-0.00160215 25.4643 0.330981 24.0774 0.97031 22.8278C2.25994 20.2434 3.51806 17.6418 4.8295 15.0672C5.10828 14.5204 5.03555 14.2826 4.53619 13.9246C0.192168 10.8105 0.900011 4.53332 3.65138 1.78951C4.17467 1.26003 4.79935 0.844242 5.48714 0.567646C6.17493 0.29105 6.91133 0.159472 7.65118 0.18098C22.6694 0.198962 37.686 0.198962 52.701 0.18098C56.228 0.18098 58.4558 1.8974 59.2461 5.37436C60.0363 8.85133 59.2461 11.8624 56.2644 14.0423C55.942 14.2875 55.8305 14.4346 56.0365 14.8392C57.2777 17.2789 58.4873 19.7432 59.7067 22.1952C60.8314 24.2059 61.0011 26.3857 60.9769 28.6514C60.9163 34.3376 60.9527 40.0239 60.9575 45.7101C60.9591 50.1123 60.9664 54.5153 60.9793 58.9191ZM58.0122 56.9158C58.0275 56.8258 58.038 56.7349 58.0437 56.6437C58.0437 46.5659 58.0437 36.4881 58.0437 26.4103C58.0743 25.8954 57.9519 25.383 57.6922 24.939L53.7142 16.6708C52.4295 19.27 51.261 21.6705 50.0563 24.049C49.5694 24.9994 49.3197 26.0558 49.329 27.1262C49.3436 40.7252 49.3436 54.3249 49.329 67.9254C49.329 68.8082 49.3896 69.6958 49.1036 70.6374C51.6877 70.6374 54.216 70.679 56.7444 70.6128C57.5637 70.5908 58.0267 69.9557 58.0267 69.1073C58.0413 65.0418 58.0243 60.9911 58.0122 56.9158ZM46.4201 28.6244C46.2271 26.1433 46.7897 23.6618 48.0321 21.5136C49.1011 19.6451 49.9714 17.659 50.9168 15.7145C51.0429 15.4693 51.2829 15.2241 51.2053 14.8931C51.1423 14.8782 51.0783 14.8684 51.0138 14.8637C36.9345 14.8637 22.8544 14.858 8.77354 14.8465C8.23781 14.8465 8.04631 15.0917 7.84026 15.4963C6.43669 18.3774 5.03555 21.2487 3.60048 24.1029C3.13506 25.0282 2.89802 26.0538 2.9096 27.0919C2.92092 40.8788 2.92092 54.6649 2.9096 68.4502C2.9096 70.2524 3.30473 70.657 5.09131 70.657H43.7075C46.2989 70.657 46.5389 70.3946 46.4152 67.7317C46.4152 63.9777 46.4395 60.2236 46.4395 56.4696C46.4379 47.1879 46.4314 37.9061 46.4201 28.6244ZM49.0284 3.16264C48.8248 3.14547 48.7351 3.13076 48.6454 3.13076C34.9233 3.13076 21.202 3.13076 7.48149 3.13076C6.46578 3.13076 5.75794 3.62117 5.24403 4.4475C4.29135 5.95549 4.13378 7.58854 4.62103 9.28534C5.181 11.247 6.15065 11.9433 8.17963 11.9433H49.0478C47.5134 8.97638 47.5134 6.10997 49.0284 3.16264ZM50.7956 7.29184C50.7956 9.00826 51.3289 10.4255 52.1652 11.2298C53.1349 12.164 54.2572 12.164 55.2245 11.2298C57.028 9.49376 57.045 5.63182 55.2608 3.87372C54.2766 2.89292 53.1131 2.89292 52.141 3.87372C51.1689 4.85453 50.8465 6.17372 50.7956 7.29184Z" fill="#333333"/>
<path d="M60.9794 58.9191C60.9697 54.5169 60.9608 50.1147 60.9527 45.7125C60.9527 40.0263 60.9115 34.34 60.9721 28.6538C60.9964 26.3881 60.8267 24.2083 59.7019 22.1976C60.8121 21.2168 61.8351 20.1257 63.1248 19.3705C67.127 17.0263 70.8383 17.3108 74.5496 20.2654C77.4198 22.5483 79.3736 25.5496 80.8863 28.8475C83.1407 33.7516 84.3721 38.9278 84.1394 44.3639C83.9406 49.0228 82.5347 53.2353 79.0245 56.4916C76.6731 58.669 73.849 59.7749 70.7219 60.2064C67.419 60.6608 64.0561 60.2164 60.9794 58.9191Z" fill="#6CB71D"/>
<path d="M61.3117 84.0395C61.5541 80.972 61.7796 77.8726 62.0026 74.7733C62.1456 72.7675 62.2644 70.7593 62.3953 68.7511C62.5189 66.8974 62.6668 65.0436 62.7492 63.1875C62.7759 62.5941 63.0231 62.6603 63.4304 62.7486C65.2522 63.1775 67.1219 63.3621 68.9913 63.2978C70.3458 63.2552 71.6921 63.0686 73.0081 62.7412C73.4759 62.6186 73.6311 62.6799 73.6626 63.212C73.8872 66.9848 74.1296 70.756 74.3898 74.5256C74.5967 77.468 74.8229 80.4146 75.0686 83.3652C75.3498 86.7563 73.4686 89.7796 70.4046 90.8144C68.9356 91.3247 67.3388 91.3145 65.8763 90.7856C64.4138 90.2567 63.1726 89.2405 62.3565 87.9038C61.6666 86.7361 61.3053 85.3998 61.3117 84.0395Z" fill="#6CB71D"/>
<path d="M26.118 73.6139H37.7538C37.7538 77.5371 37.7538 81.4383 37.7368 85.3493C37.7368 86.9048 37.1259 88.3967 36.0385 89.4966C34.951 90.5966 33.4762 91.2145 31.9383 91.2145C30.4005 91.2145 28.9256 90.5966 27.8382 89.4966C26.7507 88.3967 26.1398 86.9048 26.1398 85.3493C26.1107 81.4383 26.1204 77.5273 26.118 73.6139Z" fill="#6CB71D"/>
<path d="M26.1133 39.3292C26.1133 35.1019 26.1133 30.873 26.1133 26.6424C31.2945 26.6326 36.474 26.6228 41.6519 26.613C42.9246 26.613 43.373 26.2035 43.55 24.9309C44.7039 26.0049 45.4214 27.4246 46.4153 28.6286C46.4153 37.907 46.4218 47.1855 46.4347 56.4639C46.4347 60.2179 46.4177 63.972 46.4104 67.726C39.9768 67.726 33.5432 67.704 27.1096 67.726C26.3169 67.726 26.0915 67.5348 26.1012 66.7158C26.1473 63.1432 26.1157 59.5682 26.1012 55.9931L38.3284 55.9637C38.5999 55.9637 38.8714 55.9784 39.1429 55.9637C39.9962 55.8999 40.5974 55.2943 40.6144 54.517C40.6313 53.7397 40.0253 53.112 39.1769 53.0458C38.9059 53.0213 38.6333 53.0213 38.3624 53.0458C37.8315 53.0973 37.6351 52.9526 37.5018 52.3396C36.4174 46.8765 33.2265 43.3415 27.929 41.7346C27.3375 41.5556 26.4891 41.7469 26.1982 41.2221C25.9073 40.6974 26.1279 39.9692 26.1133 39.3292Z" fill="#6CB71D"/>
<path d="M58.0125 56.9164C55.9544 55.4771 54.6599 53.4395 53.7242 51.164C52.1025 47.226 51.9716 43.1336 52.5728 38.9578C53.2435 33.958 54.9921 29.1682 57.6949 24.9274C57.9546 25.3713 58.077 25.8837 58.0464 26.3986C58.0464 36.4764 58.0464 46.5542 58.0464 56.632C58.0403 56.7274 58.029 56.8223 58.0125 56.9164Z" fill="#6CB71D"/>
<path d="M26.1133 39.3297C26.1279 39.9697 25.9412 40.7249 26.2151 41.2178C26.4891 41.7107 27.3545 41.5513 27.9459 41.7303C33.2386 43.329 36.4295 46.864 37.5188 52.3353C37.64 52.9483 37.8485 53.0929 38.3793 53.0414C38.6503 53.0169 38.9229 53.0169 39.1938 53.0414C40.0423 53.115 40.6483 53.7403 40.6314 54.5127C40.6144 55.285 40.0132 55.8956 39.1599 55.9594C38.8884 55.979 38.6169 55.9594 38.3454 55.9594L26.1182 55.9888L10.8899 55.9594C10.6184 55.9594 10.3444 55.9765 10.0754 55.9594C9.71134 55.9381 9.36909 55.777 9.11857 55.509C8.86805 55.241 8.72818 54.8864 8.72755 54.5176C8.72613 54.1489 8.8616 53.7931 9.10717 53.5206C9.35273 53.2482 9.69048 53.0789 10.0535 53.0464C10.6087 52.9654 11.3189 53.3308 11.6801 52.8502C11.9734 52.4603 11.8983 51.7983 12.0292 51.2662C13.2679 46.2346 17.5319 42.2624 22.545 41.5022C23.0735 41.4238 23.3183 41.257 23.2359 40.7176C23.2141 40.568 23.2359 40.4111 23.2359 40.2591C23.1777 39.418 23.3983 38.7167 24.2613 38.4372C25.1243 38.1577 25.6721 38.6456 26.1133 39.3297ZM26.1133 44.3981C21.3378 43.226 15.2169 47.6004 14.703 52.5363C14.6569 52.963 14.7854 53.0439 15.1709 53.0414C18.807 53.0218 22.4674 53.0169 26.1157 53.0071C28.7071 53.0071 31.3009 53.0071 33.8899 53.0537C34.6462 53.0709 34.7747 52.8085 34.5832 52.171C34.5299 51.9969 34.4886 51.8179 34.4402 51.6438C33.3542 47.7721 29.6792 44.5746 26.1157 44.3981H26.1133Z" fill="#333333"/>
<path d="M43.5548 24.9322C43.3778 26.2048 42.9293 26.6119 41.6567 26.6143C36.4852 26.6274 31.3057 26.6372 26.1181 26.6438L7.93721 26.6143C7.66594 26.6303 7.39398 26.6303 7.12271 26.6143C6.75289 26.5848 6.40923 26.4099 6.16543 26.1271C5.92163 25.8442 5.79709 25.476 5.81853 25.1014C5.86702 24.2898 6.32275 23.819 7.10574 23.694C7.37641 23.667 7.64879 23.6621 7.92024 23.6793L26.1132 23.6498L42.2918 23.6621C42.6 23.7304 42.8825 23.8861 43.1062 24.1111C43.3299 24.3361 43.4855 24.6209 43.5548 24.9322Z" fill="#333333"/>
<path d="M42.2966 23.662L26.118 23.6497C26.118 22.2447 26.118 20.8397 26.1326 19.4323C26.1326 18.4269 26.661 17.809 27.587 17.8188C33.211 17.885 38.1513 19.7682 42.2966 23.662Z" fill="#6CB71D"/>
<path d="M26.118 53.0069C26.118 50.1381 26.118 47.2684 26.118 44.3979C29.6815 44.5744 33.3564 47.7719 34.4449 51.6436C34.4933 51.8177 34.5345 51.9967 34.5879 52.1708C34.7794 52.8059 34.6509 53.0707 33.8946 53.0535C31.3032 52.9971 28.7094 53.0167 26.118 53.0069Z" fill="#6CB71D"/>
</svg>
