<svg width="90" height="92" viewBox="0 0 90 92" fill="none" xmlns="http://www.w3.org/2000/svg">
<path d="M71.8293 34.077C73.2162 35.833 73.9193 37.8955 74.3921 40.0513C74.6674 41.1786 74.7882 42.3389 74.7509 43.4995C74.7194 44.066 74.9207 44.2352 75.4783 44.2352C79.1143 44.1928 82.6276 45.5641 85.293 48.066C87.7495 50.2895 89.351 53.319 89.8148 56.6203C90.5422 61.5252 89.165 65.7999 85.7464 69.2702C82.4805 72.5835 78.4436 74.028 73.7835 73.4394C73.2162 73.3658 72.6197 73.3609 72.0863 73.1647C71.359 72.89 71.1674 73.199 71.0001 73.8465C69.6181 79.1512 68.2094 84.4486 66.808 89.7459C66.5001 90.9158 66.1485 91.2027 64.9726 91.2027H51.1938C50.0009 91.2027 49.6372 90.9158 49.3366 89.7754C47.9376 84.4756 46.5265 79.1782 45.1542 73.8735C44.9699 73.1647 44.7517 72.9979 43.9928 73.1745C39.6286 74.1874 35.6232 73.3192 31.9863 70.6779C31.7438 70.5038 31.5378 70.2487 31.2007 70.2536C31.305 70.1457 31.402 70.0329 31.5087 69.9323C35.5965 66.0966 37.1919 61.4149 36.1347 55.8649C35.4947 52.4976 33.7102 49.7974 31.208 47.5534C31.659 47.5044 31.9354 47.1537 32.2821 46.9182C34.8352 45.1622 37.6162 44.1813 40.739 44.2646C40.6008 44.4241 40.4723 44.5957 40.322 44.7429C39.0709 45.9863 39.0588 46.5504 40.2735 47.779C41.7444 49.2702 43.2177 50.7604 44.6935 52.2499C45.7385 53.2996 46.4222 53.2873 47.443 52.2058C49.4337 50.1099 51.7217 48.3254 54.2318 46.9109C54.7821 46.597 55.0391 46.6166 55.4634 47.1561C56.9561 49.054 59.0919 50.3242 61.4573 50.7206C63.8227 51.117 66.2494 50.6115 68.2674 49.3019C70.2855 47.9923 71.7513 45.9719 72.3811 43.6318C73.0109 41.2918 72.7599 38.7985 71.6766 36.635C71.1529 35.6123 71.2935 34.8962 71.8293 34.077ZM53.7081 63.7521C53.5868 63.4455 53.7275 63.1537 53.7808 62.8643C53.976 61.7663 53.8571 60.6348 53.4381 59.6029C53.0192 58.571 52.3175 57.6816 51.4158 57.0393C50.5141 56.397 49.4497 56.0286 48.348 55.9774C47.2463 55.9262 46.1531 56.1943 45.1969 56.7503C44.2408 57.3062 43.4615 58.1268 42.9507 59.1155C42.44 60.1043 42.219 61.22 42.3139 62.3314C42.4087 63.4428 42.8154 64.5037 43.4861 65.3893C44.1568 66.2749 45.0636 66.9482 46.0997 67.3302C48.1825 68.093 50.0639 67.6245 51.8169 66.3713C51.859 66.5787 51.9182 66.7822 51.9939 66.9795C53.199 69.5407 54.0234 72.2678 54.4403 75.0727C54.6027 76.0782 55.2428 76.6129 56.089 76.4976C56.9352 76.3824 57.4831 75.5951 57.3158 74.5871C56.911 72.0585 56.2388 69.5812 55.3107 67.1978C54.8403 66.0157 54.016 65.0053 53.7081 63.7472V63.7521ZM60.9818 74.1163C60.9818 74.2389 60.9818 74.3615 60.9818 74.4817C60.9818 75.8281 61.4352 76.4927 62.3977 76.5148C63.3603 76.5369 63.8525 75.8722 63.8888 74.5528C63.9305 73.2467 64.0994 71.948 64.3932 70.6754C65.3848 66.1065 67.2057 61.8465 69.3417 57.7361C69.9066 56.6472 69.7272 55.8134 68.8713 55.3867C68.0155 54.9599 67.3293 55.3229 66.7668 56.3676C65.488 58.725 64.3748 61.1704 63.4355 63.6859C62.1795 67.0458 61.2 70.4866 60.9745 74.1114L60.9818 74.1163Z" fill="#6CB71D"/>
<path d="M24.7004 17.9498C26.6401 19.4556 28.4803 20.3459 30.7255 20.1398C31.8359 20.0368 32.4227 20.5666 32.4954 21.6923C32.8882 28.3974 28.073 33.3367 21.4394 33.0276C20.1543 32.9688 19.684 32.4194 19.7785 31.0926C19.8341 30.0247 19.6687 28.9568 19.2929 27.9573C18.9172 26.9577 18.3394 26.0484 17.5964 25.2876C17.6645 26.3691 17.5431 27.4543 17.2376 28.493C15.6471 33.7658 9.60986 35.691 5.86147 32.1153C4.97854 31.2779 4.17643 30.3573 3.466 29.3661C-4.60783 18.0528 2.19794 2.08957 15.8847 0.336046C22.0722 -0.458559 27.3311 1.56229 31.6129 6.09693C34.9442 9.61869 33.5162 15.1858 28.8489 17.2606C27.6075 17.8247 26.3079 18.0062 24.7004 17.9498ZM18.2753 3.09509C16.9441 3.07237 15.6167 3.24671 14.3354 3.61256C8.60852 5.28025 4.848 9.01783 3.39326 14.8449C1.93851 20.672 3.63572 25.7045 7.79143 29.913C8.80248 30.9381 10.0851 31.2251 11.4792 30.8106C13.4334 30.2318 14.91 27.821 14.6796 25.5083C14.5596 24.5689 14.5596 23.6176 14.6796 22.6782C14.7161 22.5007 14.7024 22.3164 14.6403 22.1464C14.5781 21.9764 14.4699 21.8276 14.3281 21.7168C13.4722 20.932 12.2405 20.8364 11.4428 21.5304C10.6064 22.2661 10.5239 23.3943 11.2683 24.4047C11.5835 24.8339 11.872 25.2582 11.7532 25.8222C11.7106 26.081 11.5972 26.3225 11.4257 26.5193C11.2543 26.7161 11.0318 26.8604 10.7834 26.9357C10.4936 27.0278 10.1833 27.0303 9.8922 26.9429C9.60106 26.8555 9.34235 26.6822 9.1492 26.4452C8.30501 25.5111 7.84133 24.2887 7.85122 23.0232C7.86112 21.7577 8.34385 20.5428 9.20254 19.6224C10.9822 17.7266 14.0662 17.5966 16.098 19.3771C16.806 19.9951 17.4146 20.7284 18.1104 21.3612C20.5762 23.5978 22.2467 26.2661 22.671 29.653C22.7195 30.0381 22.8674 30.065 23.1972 30.0356C24.8168 29.8661 26.3304 29.1411 27.4864 27.9811C28.6425 26.8212 29.3713 25.2961 29.552 23.6592C29.5908 23.2766 29.5229 23.1343 29.1131 23.0877C24.407 22.5261 21.4394 19.2962 18.6681 15.9265C17.0703 13.9645 17.5649 10.921 19.4245 9.29251C20.3245 8.50655 21.4748 8.07575 22.6638 8.07936C23.8527 8.08296 25.0004 8.52073 25.8957 9.31213C26.6231 9.97185 26.7734 10.84 26.2667 11.4973C25.7599 12.1546 24.9186 12.233 24.1015 11.6346C23.8454 11.4252 23.5571 11.2595 23.2481 11.1441C22.8751 11.0066 22.4684 10.993 22.0872 11.1055C21.7061 11.218 21.3704 11.4506 21.129 11.7695C20.5447 12.4709 20.5301 13.2876 20.9229 14.092C21.2963 14.8547 21.8491 15.2079 22.7535 14.97C23.4227 14.7934 24.1306 14.8915 24.8265 14.97C26.7443 15.2153 28.3373 14.5506 29.5932 13.0939C30.1994 12.396 30.5245 11.4934 30.5043 10.5647C30.4841 9.63597 30.12 8.74874 29.4841 8.07853C26.4267 4.8854 22.7026 3.16621 18.2753 3.09509Z" fill="#333333"/>
<path d="M71.8292 34.0766C71.2934 34.8958 71.1528 35.6119 71.6716 36.6248C72.7549 38.7883 73.006 41.2816 72.3762 43.6216C71.7464 45.9617 70.2806 47.9821 68.2625 49.2917C66.2445 50.6013 63.8178 51.1068 61.4524 50.7104C59.087 50.314 56.9512 49.0438 55.4585 47.1459C55.0342 46.6064 54.7772 46.5868 54.2268 46.9007C51.7168 48.3152 49.4288 50.0997 47.438 52.1956C46.4173 53.2771 45.7408 53.2894 44.6886 52.2397C43.2112 50.7535 41.7379 49.2632 40.2686 47.7689C39.0563 46.5426 39.0563 45.9761 40.3171 44.7327C40.4674 44.5855 40.5959 44.4139 40.7341 44.2544L41.396 43.5555C43.0932 41.8387 44.3952 39.8547 45.5444 37.7505C45.6972 37.4684 45.8402 37.2232 45.4669 36.9853C44.7225 36.5095 44.194 35.7909 43.5539 35.1999C40.5838 31.1091 41.1608 26.4224 43.2969 23.4083C44.6838 21.4122 46.7563 20.0106 49.1099 19.4768C51.4635 18.9431 53.9292 19.3157 56.0259 20.5218C56.2013 20.6451 56.4058 20.7193 56.6186 20.737C56.8315 20.7546 57.0452 20.7151 57.2382 20.6223C61.3405 18.8541 65.2199 19.2955 68.6143 22.1993C72.0087 25.103 73.0803 28.9583 72.0087 33.3679C71.9432 33.6033 71.885 33.8387 71.8292 34.0766ZM45.3529 32.4801C45.8766 33.6818 46.8076 34.4641 47.9108 35.0969C49.0795 35.7762 49.2734 36.3231 48.7594 37.5739C47.5231 40.5992 45.7107 43.3491 43.4254 45.6671C42.9817 46.1159 42.9404 46.3856 43.4254 46.8197C44.1489 47.469 44.8331 48.1619 45.4741 48.8945C45.9227 49.4071 46.2015 49.3998 46.6864 48.8945C48.9769 46.5815 51.6958 44.748 54.6875 43.4991C55.8683 43.0086 56.4429 43.2072 57.0733 44.3305C57.524 45.1638 58.1403 45.8937 58.8836 46.4742C59.6268 47.0548 60.4808 47.4734 61.3918 47.7038C62.3028 47.9342 63.2511 47.9713 64.1769 47.8128C65.1028 47.6543 65.9862 47.3037 66.7716 46.783C70.1054 44.6101 70.8934 40.1245 68.4833 36.8357C67.9014 36.0411 67.8214 35.3397 68.3597 34.496C69.0401 33.444 69.4263 32.2254 69.4774 30.9693C69.6156 27.9111 68.4664 25.4684 65.9278 23.8105C63.3893 22.1527 60.7247 22.0325 58.1207 23.5015C56.9084 24.1882 56.0744 24.1196 54.9494 23.32C52.3284 21.4562 48.7691 21.8829 46.4828 24.1563C44.2449 26.3832 43.7794 29.8584 45.3529 32.4801Z" fill="#333333"/>
<path d="M31.2082 47.5437C33.7176 49.7877 35.4948 52.4879 36.1349 55.8551C37.192 61.4051 35.5967 66.0869 31.5088 69.9226C31.4021 70.0231 31.3052 70.1359 31.2009 70.2438C26.3348 73.952 21.0953 74.6583 15.5527 72.0391C9.79919 69.3266 6.623 62.8962 7.65345 56.3701C8.62327 50.2389 13.7149 45.2383 19.8563 44.3701C24.0969 43.7693 27.8598 44.8901 31.2082 47.5437ZM29.2079 49.7509C25.4668 46.879 21.3911 46.2904 17.1311 48.2794C12.8711 50.2684 10.5435 53.7852 10.4029 58.5112C10.2599 63.3965 12.4565 67.1488 16.7941 69.3413C21.1316 71.5338 25.3189 70.9918 29.1958 68.0391C35.022 63.5216 35.0269 54.2659 29.2079 49.7435V49.7509Z" fill="#333333"/>
<path d="M45.239 4.58143C46.3877 4.59118 47.5078 4.94537 48.4575 5.59917C49.4071 6.25298 50.1438 7.17702 50.5742 8.25439C51.0045 9.33176 51.1093 10.5141 50.8753 11.6517C50.6412 12.7893 50.0788 13.8311 49.2592 14.6454C48.4397 15.4596 47.3997 16.0097 46.271 16.226C45.1423 16.4423 43.9756 16.315 42.9184 15.8604C41.8612 15.4058 40.961 14.6442 40.3318 13.672C39.7026 12.6998 39.3726 11.5607 39.3836 10.3987C39.388 9.62714 39.5433 8.86407 39.8404 8.15342C40.1375 7.44277 40.5706 6.79857 41.1148 6.2579C41.659 5.71722 42.3036 5.29076 43.0114 5.00304C43.7192 4.71532 44.4762 4.57204 45.239 4.58143ZM45.2123 13.3785C45.7862 13.3755 46.3462 13.2 46.8213 12.8744C47.2964 12.5488 47.6651 12.0876 47.8806 11.5496C48.096 11.0116 48.1485 10.4209 48.0314 9.85263C47.9143 9.28436 47.6328 8.76411 47.2228 8.35798C46.8127 7.95185 46.2926 7.67816 45.7284 7.57168C45.1643 7.4652 44.5816 7.53072 44.0543 7.75994C43.527 7.98915 43.079 8.37171 42.7672 8.85901C42.4553 9.34632 42.2937 9.91639 42.3028 10.4968C42.3248 11.264 42.6405 11.9925 43.1833 12.5287C43.7261 13.065 44.4536 13.367 45.2123 13.3711V13.3785Z" fill="#333333"/>
<path d="M27.7724 37.5742C27.7781 36.4125 28.1243 35.2786 28.7672 34.316C29.41 33.3533 30.3207 32.6051 31.3839 32.1659C32.4472 31.7267 33.6153 31.6163 34.7406 31.8487C35.8658 32.081 36.8977 32.6457 37.7057 33.4712C38.5138 34.2968 39.0616 35.3461 39.28 36.4866C39.4984 37.6271 39.3776 38.8075 38.9328 39.8786C38.488 40.9496 37.7392 41.8632 36.7811 42.5037C35.823 43.1443 34.6986 43.4831 33.5501 43.4773C32.7866 43.4767 32.0308 43.3231 31.3263 43.0255C30.6218 42.7279 29.9825 42.2922 29.4454 41.7433C28.9082 41.1945 28.4838 40.5436 28.1967 39.828C27.9095 39.1124 27.7653 38.3464 27.7724 37.5742ZM36.4766 37.6232C36.4833 37.0397 36.3184 36.4674 36.0028 35.9789C35.6873 35.4905 35.2352 35.1079 34.7042 34.8799C34.1732 34.6519 33.5872 34.5887 33.0206 34.6983C32.454 34.808 31.9324 35.0855 31.5221 35.4957C31.1118 35.9059 30.8313 36.4302 30.7163 37.002C30.6012 37.5738 30.6568 38.1673 30.876 38.707C31.0952 39.2468 31.468 39.7085 31.9472 40.0334C32.4264 40.3583 32.9902 40.5318 33.5671 40.5319C34.33 40.5226 35.0597 40.2142 35.6023 39.6717C36.145 39.1291 36.4584 38.3948 36.4766 37.6232Z" fill="#333333"/>
<path d="M11.8088 42.7447C11.8064 43.9062 11.4636 45.0409 10.8238 46.0054C10.184 46.9699 9.27578 47.7208 8.21409 48.1633C7.15239 48.6057 5.98484 48.7199 4.85902 48.4913C3.7332 48.2626 2.69967 47.7015 1.88907 46.8789C1.07847 46.0562 0.527199 45.0089 0.304944 43.8693C0.0826877 42.7298 0.199426 41.5492 0.640402 40.4768C1.08138 39.4043 1.82679 38.4882 2.78242 37.8442C3.73804 37.2003 4.86097 36.8573 6.00925 36.8588C7.54917 36.864 9.02427 37.4864 10.1114 38.5896C11.1984 39.6929 11.8088 41.1871 11.8088 42.7447ZM8.89934 42.7643C8.90607 42.1809 8.74117 41.6085 8.42559 41.1201C8.11001 40.6316 7.65799 40.2491 7.12698 40.021C6.59597 39.793 6.00993 39.7298 5.44333 39.8395C4.87673 39.9491 4.35514 40.2267 3.94484 40.6368C3.53453 41.047 3.25404 41.5713 3.139 42.1431C3.02396 42.7149 3.07956 43.3084 3.29874 43.8482C3.51792 44.3879 3.89078 44.8496 4.36995 45.1745C4.84912 45.4994 5.41297 45.673 5.98985 45.673C6.7528 45.6637 7.48241 45.3553 8.02509 44.8128C8.56777 44.2703 8.88118 43.5359 8.89934 42.7643Z" fill="#333333"/>
<path d="M43.5587 35.2007C44.1988 35.7918 44.7273 36.5104 45.4717 36.9862C45.8451 37.2314 45.702 37.4766 45.5493 37.7513C44.4 39.8556 43.0932 41.847 41.4008 43.5564C41.3359 40.6221 42.0833 37.728 43.5587 35.2007Z" fill="#6CB71D"/>
<path d="M51.8168 66.3666C50.0638 67.6198 48.1799 68.0834 46.0997 67.3255C45.0618 66.9441 44.1532 66.2706 43.481 65.3844C42.8088 64.4982 42.401 63.4362 42.3055 62.3234C42.21 61.2106 42.4308 60.0934 42.9419 59.1033C43.4531 58.1131 44.2333 57.2914 45.1907 56.7347C46.1481 56.1781 47.2428 55.9097 48.3459 55.9613C49.449 56.0128 50.5145 56.3821 51.4171 57.0256C52.3197 57.6692 53.0217 58.5602 53.4404 59.5938C53.8592 60.6273 53.9772 61.7604 53.7807 62.8596C53.7274 63.149 53.5868 63.4408 53.708 63.7474C53.1406 64.667 52.6678 65.648 51.8168 66.3666ZM50.1026 63.8651C51.3683 62.4721 51.2689 60.5984 49.8796 59.6836C49.899 59.4384 49.7074 59.3795 49.562 59.2912C48.9372 58.9393 48.2063 58.8324 47.5086 58.9909C46.8109 59.1494 46.1954 59.5623 45.7795 60.1507C45.3636 60.7391 45.1765 61.4618 45.2539 62.1808C45.3313 62.8999 45.6678 63.5649 46.1991 64.049C47.2319 64.9932 49.1837 65.0521 50.1026 63.8651Z" fill="#333333"/>
<path d="M69.4629 30.9896C69.4118 32.2457 69.0255 33.4643 68.3451 34.5163C67.8069 35.36 67.8869 36.0614 68.4688 36.856C70.8788 40.1448 70.0908 44.6304 66.757 46.8033C65.9717 47.324 65.0883 47.6746 64.1624 47.8331C63.2365 47.9916 62.2882 47.9545 61.3772 47.7241C60.4662 47.4937 59.6122 47.0751 58.869 46.4945C58.1258 45.914 57.5095 45.1841 57.0588 44.3508C56.4284 43.2275 55.8465 43.0191 54.673 43.5194C51.6812 44.7683 48.9623 46.6018 46.6719 48.9148C46.187 49.4053 45.9154 49.4176 45.4596 48.9148C44.8185 48.1822 44.1344 47.4894 43.4108 46.84C42.9259 46.406 42.972 46.1362 43.4108 45.6874C45.6962 43.3694 47.5086 40.6195 48.7449 37.5942C49.2589 36.3532 49.0649 35.7965 47.8963 35.1172C46.8028 34.4844 45.8621 33.7021 45.3384 32.5004L46.6986 31.1858C48.3053 29.5935 50.2546 28.399 52.3939 27.696C52.4478 28.1202 52.6155 28.5214 52.8788 28.856C53.7541 30.0381 53.7468 30.818 52.9006 32.005C52.2678 32.8952 52.3163 33.7217 53.0291 34.249C53.7419 34.7763 54.5614 34.5678 55.2282 33.7364C56.8915 31.6641 56.8018 29.1552 54.9857 26.8082C55.3761 26.7934 55.7737 26.8082 56.1617 26.7616C59.6943 26.2882 62.982 27.0436 66.1024 28.7236C67.3099 29.3514 68.3161 30.2686 69.4629 30.9896ZM61.9176 35.7794C60.582 35.7629 59.2872 36.2448 58.2807 37.1331C57.6067 37.7634 57.4903 38.6046 57.9898 39.2496C58.4893 39.8946 59.2942 39.9731 60.0774 39.4164C61.4545 38.4354 61.9879 38.4354 63.4039 39.4458C64.1434 39.9657 64.9023 39.9044 65.4235 39.279C65.6625 38.98 65.7777 38.599 65.7452 38.2159C65.7127 37.8328 65.5348 37.4773 65.249 37.2239C64.3513 36.3453 63.1656 35.8312 61.9176 35.7794Z" fill="#6CB71D"/>
<path d="M28.0925 51.7259C28.2816 50.9607 28.9314 50.4579 29.2078 49.7443C35.0267 54.2666 35.0267 63.5223 29.2078 68.0398C28.9386 67.3212 28.2816 66.8135 28.1022 66.0533C29.072 65.2856 29.3605 64.5818 28.8295 63.8632C28.2355 63.049 27.6027 62.2078 26.4922 62.0361C26.0196 59.9474 26.0196 57.7778 26.4922 55.6891C27.319 55.6891 27.7748 55.0833 28.2816 54.5658C29.3823 53.4451 29.3363 52.6799 28.0925 51.7259ZM29.2635 57.423C29.0526 57.423 28.8416 57.423 28.6307 57.423C27.7045 57.4622 27.0741 58.0312 27.0523 58.8405C27.0305 59.6498 27.6876 60.312 28.6404 60.3537C29.0308 60.3733 29.4235 60.3733 29.8139 60.3537C30.7595 60.3071 31.4238 59.6572 31.3947 58.8307C31.3656 58.0042 30.7304 57.4598 29.8066 57.423C29.6248 57.4181 29.4454 57.423 29.2635 57.423Z" fill="#6CB71D"/>
<path d="M50.1027 63.8656C49.1838 65.0526 47.232 64.9938 46.1992 64.0496C45.6678 63.5655 45.3314 62.9004 45.254 62.1814C45.1766 61.4623 45.3637 60.7396 45.7796 60.1512C46.1955 59.5628 46.811 59.15 47.5087 58.9914C48.2064 58.8329 48.9373 58.9398 49.562 59.2917C49.7075 59.38 49.8991 59.4511 49.8797 59.6841C49.0965 59.537 48.4249 59.6841 48.0588 60.4812C47.6927 61.2782 48.0249 61.8791 48.6092 62.4162C49.1208 62.8846 49.6057 63.3825 50.1027 63.8656Z" fill="#6CB71D"/>
<path d="M52.4083 27.6762C52.8932 26.2317 53.7636 25.9325 54.988 26.7884C56.8065 29.1354 56.8962 31.6443 55.2305 33.7167C54.5637 34.5481 53.7321 34.7443 53.0314 34.2292C52.3307 33.7142 52.2701 32.8755 52.9029 31.9852C53.7491 30.7909 53.7564 30.0232 52.8811 28.8362C52.6221 28.5003 52.4587 28.0992 52.4083 27.6762Z" fill="#333333"/>
<path d="M61.9178 35.7799C63.165 35.8324 64.3497 36.3464 65.2467 37.2244C65.5326 37.4779 65.7104 37.8334 65.743 38.2165C65.7755 38.5996 65.6602 38.9806 65.4213 39.2796C64.9 39.905 64.1411 39.9663 63.4016 39.4464C61.9857 38.4458 61.462 38.4409 60.0751 39.4169C59.292 39.9737 58.504 39.9074 57.9876 39.2502C57.4711 38.5929 57.6045 37.764 58.2785 37.1337C59.2856 36.2448 60.5814 35.7628 61.9178 35.7799Z" fill="#333333"/>
<path d="M26.4852 62.0359C27.5956 62.2076 28.2284 63.0488 28.8225 63.863C29.3486 64.5987 29.0649 65.2854 28.0951 66.0531C27.0259 66.0531 25.5857 65.0475 25.2317 64.0592C24.9019 63.1493 25.3165 62.4822 26.4852 62.0359Z" fill="#333333"/>
<path d="M18.8065 54.2442C18.7798 55.3797 17.5117 56.0933 16.5831 55.4312C16.0312 55.0094 15.5378 54.5145 15.1163 53.9597C14.9555 53.7518 14.8627 53.4985 14.8505 53.2349C14.8383 52.9712 14.9075 52.7103 15.0484 52.4882C15.1614 52.2536 15.3382 52.0566 15.5581 51.9202C15.778 51.7838 16.0318 51.7137 16.2898 51.7181C17.2135 51.7107 18.8283 53.322 18.8065 54.2442Z" fill="#333333"/>
<path d="M17.3851 62.0798C17.6428 62.0905 17.8932 62.1693 18.1114 62.3083C18.3296 62.4472 18.508 62.6416 18.6289 62.872C18.7688 63.1113 18.832 63.3885 18.8098 63.6656C18.7877 63.9427 18.6813 64.206 18.5053 64.4195C18.1102 64.9189 17.6613 65.3721 17.1669 65.7708C16.9622 65.9286 16.719 66.0271 16.4633 66.0559C16.2075 66.0848 15.9489 66.0428 15.7149 65.9345C15.4809 65.8263 15.2803 65.6557 15.1347 65.4412C14.989 65.2266 14.9037 64.9761 14.8878 64.7163C14.8175 63.7573 16.4323 62.0504 17.3851 62.0798Z" fill="#333333"/>
<path d="M23.4201 51.5585C23.4201 53.0521 22.9643 53.7437 21.9653 53.7486C20.9664 53.7535 20.5106 53.0668 20.5106 51.5781C20.5106 50.0061 20.9616 49.3292 21.9969 49.3537C23.0321 49.3783 23.4201 50.0208 23.4201 51.5585Z" fill="#333333"/>
<path d="M14.7209 57.4253C16.2121 57.4253 16.8764 57.8667 16.8837 58.8747C16.8909 59.8827 16.2121 60.3609 14.7452 60.3609C14.5027 60.3609 14.2603 60.3731 14.0178 60.3609C13.1135 60.3045 12.517 59.6963 12.534 58.8551C12.551 58.0139 13.1256 57.4841 13.9887 57.4302C14.236 57.413 14.4785 57.4253 14.7209 57.4253Z" fill="#333333"/>
<path d="M23.4201 66.19C23.4201 67.7376 22.9352 68.4537 21.9338 68.4316C20.9325 68.4095 20.5154 67.7278 20.5154 66.2244C20.5154 64.721 20.9446 64.0515 21.9532 64.0417C22.9618 64.0319 23.4201 64.6916 23.4201 66.19Z" fill="#333333"/>
<path d="M28.0922 51.7249C29.3287 52.6789 29.3821 53.4416 28.2789 54.5649C27.7722 55.0823 27.3091 55.6905 26.4896 55.6881C25.0009 55.2516 24.6857 54.0964 25.7622 52.9707C26.395 52.2939 26.9914 51.5262 28.0922 51.7249Z" fill="#333333"/>
<path d="M29.2636 57.4225C29.4454 57.4225 29.6248 57.4225 29.8067 57.4225C30.7305 57.4592 31.3681 58.0258 31.3948 58.8302C31.4215 59.6346 30.7595 60.3017 29.814 60.3532C29.4236 60.3728 29.0308 60.3728 28.6405 60.3532C27.6876 60.309 27.0306 59.6738 27.0524 58.84C27.0742 58.0062 27.7046 57.4617 28.6308 57.4225C28.8514 57.4151 29.0526 57.4225 29.2636 57.4225Z" fill="#333333"/>
</svg>
