<svg width="90" height="92" viewBox="0 0 90 92" fill="none" xmlns="http://www.w3.org/2000/svg">
<path d="M55.1882 28.9712C57.5013 30.6218 58.6676 33.0131 59.3926 35.863C60.5491 33.8617 61.7833 32.1399 63.3618 30.6954C66.1477 28.1471 69.375 26.6658 73.1744 26.6069C74.1128 26.5922 74.7189 27.1734 74.7505 28.0147C74.782 28.8559 74.1904 29.5034 73.2787 29.5279C69.2465 29.6383 66.138 31.5317 63.6697 34.6269C61.4317 37.4326 60.2752 40.7068 59.7151 44.2337C59.6983 44.4786 59.6983 44.7245 59.7151 44.9694C60.6607 44.4985 61.4535 43.9516 62.3434 43.5837C69.4477 40.6406 75.8852 41.8473 81.6293 46.8579C86.2362 50.8777 88.6778 56.1336 89.6307 62.14C90.3824 66.8392 90.0381 71.4598 88.3481 75.9113C85.904 82.3444 81.3844 86.7296 75.1287 89.3318C71.9923 90.6298 68.6266 91.2649 65.2385 91.1983C62.9371 91.1523 60.6799 90.5502 58.6555 89.4422C58.3233 89.2656 58.0614 89.0939 57.6589 89.3196C54.6547 91.0217 51.4396 91.4239 48.0378 91.0609C43.4171 90.6162 39.0081 88.8871 35.2986 86.065C31.1184 82.8766 28.4004 78.7072 27.0256 73.6083C27.3893 73.6083 27.753 73.5813 28.1118 73.5813H50.3267C53.3769 73.5813 55.1567 71.7713 55.1567 68.6761C55.1567 61.1549 55.1567 53.6336 55.1567 46.1123C55.1567 45.5335 55.1833 44.9547 55.1955 44.3734C55.7701 44.4102 56.2381 45.2637 56.6624 44.9302C56.9849 44.6849 56.8733 43.8609 56.9533 43.2943C56.9611 43.2341 56.9651 43.1735 56.9655 43.1128C56.9655 42.4604 57.6104 41.6756 57.174 41.2415C56.7375 40.8074 55.8622 41.1311 55.1809 41.1041L55.1882 28.9712ZM70.0878 46.4189H69.6684C68.6742 46.4361 68.0535 46.9928 68.0438 47.8684C68.0341 48.744 68.6354 49.3031 69.6344 49.3571C69.9642 49.3743 70.2915 49.4086 70.6212 49.4479C72.5725 49.6926 74.4305 50.4344 76.021 51.6037C76.7896 52.1432 77.6237 51.9985 78.1062 51.3241C78.5887 50.6496 78.4287 49.7495 77.6552 49.1805C75.4488 47.541 72.8208 46.582 70.0878 46.4189ZM80.8631 53.2862C80.6209 53.2906 80.3836 53.3562 80.1728 53.477C79.962 53.5978 79.7844 53.7699 79.656 53.9777C79.5276 54.1855 79.4526 54.4224 79.4377 54.667C79.4228 54.9116 79.4685 55.156 79.5707 55.3782C80.0164 56.3403 80.5167 57.2755 81.0692 58.1791C81.1549 58.342 81.2723 58.4856 81.4143 58.6014C81.5564 58.7171 81.7202 58.8026 81.8958 58.8525C82.0714 58.9025 82.2552 58.916 82.4361 58.8921C82.617 58.8682 82.7912 58.8076 82.9483 58.7137C83.277 58.5529 83.5302 58.2681 83.6535 57.9205C83.7769 57.5729 83.7604 57.1902 83.6078 56.8547C83.196 55.8421 82.6842 54.8741 82.0803 53.9655C81.9447 53.7629 81.7638 53.5954 81.5524 53.4765C81.3409 53.3576 81.1048 53.2907 80.8631 53.2812V53.2862Z" fill="#6CB71D"/>
<path d="M55.198 44.3712C55.198 44.9525 55.1592 45.5313 55.1592 46.1101C55.1592 53.6314 55.1592 61.1526 55.1592 68.6739C55.1592 71.7691 53.3795 73.5791 50.3292 73.5791H28.1119C27.7507 73.5791 27.3845 73.5962 27.0257 73.6061C19.5286 73.5962 12.0323 73.5856 4.5368 73.5742C2.277 73.5742 0.53608 72.186 0.087515 70.0375C0.0191442 69.6467 -0.0092934 69.2497 0.00265131 68.8529C0.00265131 49.0082 0.00265131 29.1635 0.00265131 9.31882C0.00265131 6.39779 1.80661 4.58288 4.69925 4.58288C8.62965 4.58288 12.5601 4.58288 16.4905 4.58288C17.0869 4.58288 17.3949 4.56326 17.5161 3.78333C17.8458 1.63977 19.6425 0.187839 21.7884 0.180481C25.6274 0.162496 29.4665 0.162496 33.3056 0.180481C35.5581 0.180481 37.333 1.6643 37.67 3.90596C37.767 4.54364 37.9998 4.59269 38.5089 4.59023C42.5 4.57552 46.491 4.57552 50.482 4.59023C53.3674 4.59023 55.1495 6.41251 55.1544 9.35316C55.1673 15.8934 55.1778 22.4336 55.1859 28.9739C55.1859 33.019 55.1859 37.0625 55.1859 41.1044L55.198 44.3712ZM47.924 37.4304V42.0118L47.9021 64.0287C47.9021 65.8093 47.4778 66.236 45.7199 66.236L26.1285 66.263L9.43949 66.2336C7.64038 66.2336 7.25728 65.8583 7.25728 64.0385C7.25728 45.9335 7.25728 27.8285 7.25728 9.7235C7.25728 9.00489 7.58462 8.04593 7.10211 7.62899C6.68991 7.28072 5.77338 7.52598 5.09447 7.52598C3.30991 7.52598 2.91226 7.9233 2.91226 9.73331V68.4385C2.91226 68.6224 2.91226 68.8064 2.91226 68.9878C2.94863 70.0645 3.48206 70.636 4.54892 70.636C11.8036 70.636 19.0598 70.6311 26.3177 70.6213C34.4403 70.6213 42.5638 70.6262 50.6881 70.636C51.704 70.636 52.2447 70.0719 52.2544 69.0369C52.2714 67.3201 52.2544 65.6155 52.2544 63.9061C52.2544 56.9113 52.2455 49.9165 52.2278 42.9217C52.2278 42.0682 52.2278 41.2172 52.2278 40.3637V27.154C52.2278 21.1616 52.2278 15.1699 52.2278 9.17903C52.2278 8.09744 51.6652 7.5456 50.6081 7.51862C49.8807 7.50146 49.1533 7.53824 48.4259 7.51862C47.9943 7.499 47.8609 7.63144 47.8633 8.07782C47.8844 14.2534 47.8965 20.4282 47.8997 26.6022L47.924 37.4304ZM44.961 42.1712C44.9702 42.1418 44.9759 42.1113 44.978 42.0805C44.978 30.7381 44.9885 19.3957 45.0095 8.05329C45.0095 7.5873 44.8446 7.50391 44.4349 7.50636C42.4078 7.52598 40.3824 7.52598 38.3586 7.50636C37.9319 7.50636 37.7743 7.58485 37.6967 8.07536C37.3257 10.447 35.6042 11.9088 33.2401 11.9161C29.4625 11.9259 25.684 11.9259 21.9048 11.9161C19.5989 11.9161 17.8143 10.4249 17.4821 8.14894C17.3949 7.5456 17.1766 7.50146 16.699 7.50636C14.8538 7.52843 13.0086 7.56277 11.1659 7.4941C10.3366 7.46221 10.1451 7.70257 10.1451 8.53154C10.1709 26.4485 10.1774 44.3647 10.1645 62.28C10.1742 62.4327 10.1742 62.5859 10.1645 62.7386C10.1087 63.1703 10.2663 63.3126 10.71 63.3101C15.9085 63.2856 21.107 63.2831 26.3055 63.2733C32.3406 63.2733 38.3756 63.2733 44.4106 63.3125C45.0071 63.3125 45.0095 63.0256 45.0071 62.5768C45.0071 59.0058 45.0071 55.4348 45.0071 51.8639C44.9925 48.6297 44.9764 45.3988 44.9586 42.1712H44.961ZM27.5155 8.98282C29.3873 8.98282 31.2616 8.98282 33.1359 8.98282C34.2658 8.98282 34.8113 8.42608 34.8331 7.30525C34.8501 6.45175 34.855 5.58844 34.8331 4.73984C34.8065 3.7073 34.2682 3.12604 33.2668 3.12113C29.4891 3.10478 25.7115 3.10478 21.9339 3.12113C20.8815 3.12113 20.3481 3.70485 20.3263 4.7938C20.3117 5.52958 20.3263 6.26535 20.3263 7.00113C20.3263 8.50457 20.8112 8.99018 22.266 8.99508C24.0134 8.99672 25.7632 8.99263 27.5155 8.98282Z" fill="#333333"/>
<path d="M26.3129 70.6213C26.2467 69.1694 26.182 67.7175 26.119 66.2655L45.7103 66.2386C47.4779 66.2386 47.8926 65.8094 47.8926 64.0312L47.9144 42.0143C49.3692 42.2743 50.824 42.473 52.2182 42.9243C52.2279 49.919 52.2368 56.9138 52.2449 63.9086C52.2449 65.6254 52.257 67.33 52.2449 69.0394C52.2449 70.0744 51.6944 70.636 50.6785 70.6385C42.5591 70.6385 34.4372 70.6328 26.3129 70.6213Z" fill="#6CB71D"/>
<path d="M26.3005 63.2738C26.8606 59.0676 28.0826 55.1017 30.4612 51.5553C30.4612 52.2567 30.4612 52.9582 30.4903 53.6596C30.5339 54.6161 31.0868 55.2047 32.0324 55.217C34.3876 55.2448 36.7411 55.2448 39.0931 55.217C40.0387 55.217 40.623 54.6161 40.6327 53.6596C40.6602 51.2806 40.6602 48.9008 40.6327 46.5201C40.6327 45.5612 40.0387 44.9995 39.0955 44.9578C38.402 44.9259 37.7086 44.9382 37.0151 44.9309C39.4398 43.3416 42.0487 42.3188 44.9584 42.1717C44.9729 45.4042 44.9858 48.6384 44.9971 51.8741C44.9971 55.4451 44.9971 59.0161 44.9971 62.587C44.9971 63.026 44.9971 63.3228 44.4007 63.3228C38.3705 63.2836 32.3355 63.2836 26.3005 63.2738Z" fill="#6CB71D"/>
<path d="M47.9286 26.5894C49.4028 26.4839 50.8043 26.9377 52.2373 27.1535V40.3631C50.6031 39.6838 49.2258 38.6169 47.9286 37.42V26.5894Z" fill="#6CB71D"/>
<path d="M35.6113 31.7375C36.7581 31.7375 37.9074 31.7228 39.0543 31.7375C40.0751 31.7522 40.6304 32.2967 40.6376 33.3219C40.6538 35.6731 40.6538 38.0251 40.6376 40.378C40.6376 41.4547 40.08 41.9991 39.0034 42.004C36.7064 42.0187 34.4102 42.0187 32.1149 42.004C31.0408 42.004 30.4952 41.4522 30.4879 40.3731C30.4734 38.0186 30.4734 35.6657 30.4879 33.3145C30.4879 32.2918 31.0505 31.7522 32.0737 31.7375C33.2545 31.7252 34.4329 31.7375 35.6113 31.7375ZM35.6331 34.7321C34.9057 34.7321 33.9479 34.4452 33.543 34.8057C33.0581 35.2373 33.4024 36.2355 33.3951 36.9885C33.3709 39.0781 33.3951 39.083 35.4925 39.0756C36.2199 39.0756 37.1752 39.3209 37.5825 38.9457C38.0675 38.5091 37.7232 37.5133 37.7329 36.7629C37.7547 34.6732 37.7401 34.6732 35.6452 34.7321H35.6331Z" fill="#333333"/>
<path d="M37.0155 44.9303C37.709 44.9303 38.4025 44.9303 39.0959 44.9573C40.0391 44.999 40.6235 45.5606 40.6332 46.5196C40.6606 48.8986 40.6606 51.2784 40.6332 53.6591C40.6332 54.6156 40.0391 55.2066 39.0935 55.2165C36.7383 55.2442 34.3848 55.2442 32.0328 55.2165C31.0872 55.2165 30.5344 54.6156 30.4907 53.6591C30.4592 52.9576 30.4689 52.2562 30.4616 51.5547C30.4616 49.9434 30.4616 48.3345 30.4859 46.7231C30.4859 45.4723 30.9999 44.9597 32.2365 44.9524C33.8287 44.9409 35.4217 44.9336 37.0155 44.9303ZM35.5947 47.8857C33.3858 47.8857 33.3858 47.8857 33.3858 50.0807V50.1715C33.3858 52.2905 33.3858 52.2905 35.488 52.2905C37.7405 52.2905 37.7405 52.2905 37.7405 50.0489C37.7405 47.8857 37.7405 47.8857 35.5947 47.8857Z" fill="#333333"/>
<path d="M34.7748 23.8282C35.8562 22.0133 36.8697 20.3186 37.8735 18.6214C38.2154 18.0426 38.6955 17.7262 39.3695 17.8071C39.6268 17.8338 39.8717 17.9323 40.0768 18.0917C40.282 18.2511 40.4392 18.4651 40.531 18.7097C40.6238 18.936 40.6594 19.1821 40.6344 19.4258C40.6095 19.6695 40.5247 19.903 40.3879 20.1052C38.9767 22.4867 37.5825 24.8755 36.1447 27.2373C35.4658 28.3508 34.302 28.3729 33.5673 27.306C32.6192 25.9276 31.7051 24.5272 30.8032 23.1194C30.26 22.2757 30.4128 21.4271 31.1378 20.9538C31.8627 20.4804 32.658 20.6938 33.2351 21.5253C33.737 22.2414 34.2147 22.9894 34.7748 23.8282Z" fill="#333333"/>
<path d="M21.1435 22.1942C22.7122 22.1942 24.2956 22.1942 25.8522 22.1942C26.9288 22.1942 27.564 22.7436 27.5761 23.6412C27.5883 24.5389 26.9433 25.1128 25.8789 25.1128C22.646 25.1128 19.4131 25.1128 16.1802 25.1128C15.1303 25.1128 14.4829 24.5217 14.5047 23.6192C14.5265 22.7166 15.1545 22.1869 16.2335 22.1819C17.8823 22.1893 19.5117 22.1942 21.1435 22.1942Z" fill="#333333"/>
<path d="M21.0463 35.4073C22.6151 35.4073 24.1863 35.4073 25.7575 35.4073C26.9164 35.4073 27.559 35.9248 27.576 36.847C27.5929 37.7691 26.9358 38.3381 25.8059 38.3406C22.6345 38.3406 19.4638 38.3406 16.2939 38.3406C15.1592 38.3406 14.5094 37.7814 14.5215 36.8519C14.5336 35.9223 15.1762 35.4097 16.3352 35.4073C17.9063 35.4048 19.4751 35.4073 21.0463 35.4073Z" fill="#333333"/>
<path d="M21.0512 51.5575C19.48 51.5575 17.8991 51.5575 16.3401 51.5575C15.1811 51.5575 14.5361 51.0375 14.5216 50.1154C14.507 49.1932 15.1568 48.6267 16.2892 48.6242C19.4606 48.6242 22.6313 48.6242 25.8012 48.6242C26.9359 48.6242 27.5882 49.1809 27.576 50.1105C27.5639 51.04 26.9165 51.555 25.7599 51.5575C24.1912 51.56 22.62 51.5575 21.0512 51.5575Z" fill="#333333"/>
<path d="M35.5947 47.8864C37.7405 47.8864 37.7405 47.8864 37.7405 50.0495C37.7405 52.2912 37.7405 52.2912 35.488 52.2912C33.3858 52.2912 33.3858 52.2912 33.3858 50.1722V50.0814C33.3858 47.8864 33.3858 47.8864 35.5947 47.8864Z" fill="#6CB71D"/>
</svg>
