<svg width="90" height="92" viewBox="0 0 90 92" fill="none" xmlns="http://www.w3.org/2000/svg">
<path d="M55.1676 36.3295C56.9204 36.0696 58.6416 35.5792 60.4283 35.5424C60.8332 35.5424 60.9617 35.2506 60.9568 34.846C60.9398 33.2888 60.9374 31.7292 60.9568 30.1696C60.9568 29.6939 60.8017 29.5173 60.3289 29.5345C59.6016 29.5639 58.8743 29.5565 58.147 29.5345C57.2064 29.51 56.61 28.9484 56.5931 28.1024C56.5761 27.2564 57.1894 26.6139 58.1761 26.609C60.9851 26.5943 63.7949 26.5943 66.6054 26.609C67.5945 26.609 68.2103 27.2171 68.1958 28.095C68.1812 28.9729 67.5703 29.5198 66.5594 29.5369C65.8636 29.5492 65.1678 29.559 64.4745 29.5369C64.009 29.5198 63.832 29.6792 63.8393 30.1647C63.8611 31.7243 63.8635 33.2839 63.8393 34.8411C63.8393 35.3781 64.0963 35.5473 64.5424 35.5767C68.3175 35.8094 71.9961 36.8775 75.3184 38.7057C75.7693 38.951 75.8881 38.7204 76.0844 38.4213C76.8651 37.223 77.6546 36.0304 78.453 34.8435C79.0785 33.9092 79.8033 33.7032 80.5815 34.2206C81.3597 34.7381 81.4761 35.5154 80.8797 36.4423C80.2058 37.4919 79.5633 38.5684 78.8118 39.5591C78.2857 40.2531 78.356 40.6209 79.0542 41.1506C84.3174 45.2016 87.7817 50.491 89.2363 57.0188C91.1757 65.6334 89.4254 73.5148 84.1113 80.4987C79.5536 86.4894 73.4444 90.0034 66.06 90.9672C57.747 92.0486 50.3553 89.7411 44.0328 84.101C40.8144 81.2554 38.3361 77.6539 36.8156 73.6129H44.8328C46.0642 75.7926 47.694 77.7158 49.6353 79.2799C54.3094 83.0073 59.6089 84.5203 65.4854 83.6056C70.381 82.8927 74.8352 80.3513 77.9706 76.482C80.8258 73.0799 82.4888 68.8183 82.7004 64.3607C82.9042 60.8073 82.1678 57.2631 80.567 54.0933C80.1088 53.1688 79.4082 52.8182 78.6057 53.1713C77.7281 53.5587 77.4833 54.3067 77.9342 55.29C78.8427 57.1852 79.435 59.2194 79.687 61.3102C80.2445 66.4966 78.8215 71.0773 75.4396 74.9346C69.9073 81.2466 61.2574 82.6934 53.936 78.6424C51.7202 77.4163 49.7905 75.815 48.4159 73.6178C49.0196 73.6178 49.6281 73.5835 50.2244 73.581C53.4003 73.581 55.1482 71.8081 55.153 68.5957C55.153 61.45 55.1587 54.305 55.17 47.1609C55.4585 47.21 55.6937 47.0506 55.9409 46.9501C57.899 46.1632 59.9802 45.7364 62.0865 45.6896C63.2284 45.6675 63.866 45.1354 63.8563 44.2036C63.8466 43.2717 63.2041 42.7543 62.055 42.7543C59.6841 42.7543 57.4101 43.284 55.1821 44.054C55.1773 41.4792 55.1724 38.9044 55.1676 36.3295ZM62.4405 69.1744C63.386 69.1755 64.3171 68.9405 65.1512 68.49C65.9852 68.0396 66.6964 67.3877 67.2215 66.5924C67.7466 65.797 68.0693 64.8828 68.161 63.9309C68.2527 62.9791 68.1106 62.019 67.7473 61.1361C67.4685 60.4568 67.6018 60.1209 68.0649 59.6647C71.4783 56.2464 74.8723 52.8133 78.2469 49.3655C78.4906 49.1383 78.7063 48.8822 78.8894 48.6028C79.0364 48.3681 79.108 48.093 79.0941 47.8155C79.0802 47.5379 78.9816 47.2715 78.8118 47.053C78.6592 46.8219 78.4424 46.6416 78.1888 46.5347C77.9352 46.4278 77.656 46.3991 77.3863 46.4523C76.9014 46.5185 76.5935 46.8569 76.2711 47.1879C72.8124 50.6897 69.3554 54.1914 65.9 57.6932C65.5145 58.0855 65.2018 58.2694 64.6563 57.9605C64.0658 57.6492 63.4138 57.4757 62.7484 57.4529C59.5507 57.2567 56.6876 59.8192 56.5955 62.9679C56.4864 66.4328 59.0683 69.1818 62.4332 69.1744H62.4405Z" fill="#6CB71D"/>
<path d="M55.165 47.1612C55.165 54.3069 55.1593 61.4518 55.148 68.5959C55.148 71.8083 53.3952 73.5763 50.2194 73.5813C49.6157 73.5813 49.0072 73.6058 48.4109 73.618H44.8277H36.8106C34.059 73.618 31.3098 73.5886 28.568 73.5886C20.6486 73.5886 12.7292 73.5886 4.80981 73.5886C1.76974 73.5788 0 71.7887 0 68.7529V10.8636C0 7.86946 1.77944 6.06954 4.72011 6.06954C10.1328 6.06954 15.547 6.06954 20.9629 6.06954C21.5326 6.06954 21.7532 5.99842 21.8333 5.33387C22.0043 3.91791 22.6807 2.61387 23.7352 1.66676C24.7898 0.719653 26.15 0.194671 27.5602 0.190455C28.9705 0.186239 30.3337 0.70308 31.3938 1.64387C32.4539 2.58466 33.1378 3.88463 33.3172 5.29954C33.4069 6.0352 33.6711 6.07934 34.2529 6.07689C39.5719 6.05973 44.8932 6.07689 50.2145 6.07689C53.4389 6.07689 55.1504 7.79344 55.1528 11.0328L55.1747 36.3518C55.1747 38.9267 55.1747 41.5015 55.1747 44.0763C55.1714 45.0964 55.1682 46.1247 55.165 47.1612ZM43.3707 70.6116H46.5975C47.8969 70.6116 49.1939 70.6411 50.4933 70.6411C51.737 70.6411 52.2388 70.1236 52.2413 68.8534C52.2413 65.7685 52.2413 62.6828 52.2413 59.5963C52.2413 56.1142 52.2291 52.6312 52.2049 49.1475C52.2049 47.941 52.2049 46.7345 52.2049 45.528V37.421C52.2049 28.495 52.2122 19.5681 52.2267 10.6404C52.2267 9.5345 51.6449 8.99747 50.5006 8.99502C46.6217 8.99502 42.7647 8.99502 38.8955 8.99502C37.7245 8.99502 37.7245 8.99502 37.7197 10.1991C37.7197 13.0068 35.8942 14.8582 33.1305 14.8582C29.4132 14.8582 25.696 14.8582 21.9787 14.8582C21.6164 14.8687 21.254 14.8408 20.8975 14.7749C18.7423 14.304 17.4137 12.5483 17.4041 10.1819C17.4041 8.99257 17.4041 8.99257 16.2137 8.99257C12.406 8.99257 8.59738 8.99257 4.78799 8.99257C3.3819 8.99257 2.89461 9.48301 2.89461 10.9298C2.89461 30.1927 2.89461 49.454 2.89461 68.7136C2.89461 70.1457 3.37947 70.6411 4.80011 70.6435H15.9519L35.7172 70.619L43.3707 70.6116ZM27.637 8.99257C25.4309 8.99257 23.2272 8.99257 21.0211 8.99257C20.7787 8.99257 20.4247 8.77922 20.3156 9.28928C19.952 10.974 20.6817 11.9254 22.3496 11.9254H32.7741C34.4081 11.9254 34.813 11.4693 34.8493 9.78708C34.8639 9.15932 34.7233 8.96069 34.0711 8.9754C31.9232 9.01218 29.7777 8.99257 27.637 8.99257ZM27.5522 6.04992C28.3667 6.04992 29.1789 6.03275 29.991 6.04992C30.391 6.06218 30.5147 5.95183 30.4444 5.5325C30.3228 4.85823 29.9723 4.24804 29.4534 3.80725C28.9345 3.36645 28.2798 3.1227 27.6022 3.11805C26.9246 3.11339 26.2667 3.34814 25.7419 3.78177C25.2172 4.21541 24.8585 4.82072 24.7279 5.49327C24.6382 5.94938 24.7642 6.0818 25.2127 6.06463C25.9812 6.03275 26.7643 6.05482 27.5473 6.05482L27.5522 6.04992Z" fill="#333333"/>
<path d="M46.4131 34.6552C47.0022 36.1436 48.0883 37.3207 48.8932 38.6768C49.1089 39.0397 49.378 38.7773 49.5962 38.6522C50.4408 38.1829 51.3164 37.7732 52.2169 37.4261V45.5331C49.8381 46.9142 47.7685 48.7796 46.1392 51.0114C44.7185 52.9609 43.5936 55.0502 43.0045 57.4116H35.5377C35.9256 54.8883 36.8856 52.5661 38.0396 50.3248C38.5923 49.2507 39.276 48.2428 39.9014 47.2055C41.533 47.2055 43.1645 47.2055 44.7961 47.1712C45.7658 47.154 46.4398 46.5385 46.4373 45.6999C46.4349 44.8612 45.7707 44.2629 44.7937 44.2286C44.0082 44.2065 43.2227 44.204 42.4373 44.1918C43.5095 42.9673 44.7156 41.8699 46.0325 40.9205C46.4131 40.6312 46.5586 40.3933 46.2531 39.9666C45.6907 39.1844 45.1525 38.385 44.6046 37.5953C45.5081 36.8409 46.1432 35.8084 46.4131 34.6552Z" fill="#6CB71D"/>
<path d="M52.2049 49.1471C52.2162 52.6292 52.2283 56.1122 52.2412 59.5959C52.2412 62.6808 52.2412 65.7665 52.2412 68.853C52.2412 70.1233 51.737 70.6382 50.4933 70.6407C49.1939 70.6407 47.8969 70.6211 46.5975 70.6113C46.0305 69.3392 45.6068 68.0066 45.3344 66.6387C44.8859 64.5592 44.9829 62.4699 45.1671 60.388C46.5902 59.7504 46.789 59.0074 45.8944 57.6906C46.3043 56.5775 46.7996 55.4985 47.3757 54.4635C48.6048 52.3448 50.1103 50.4713 52.2049 49.1471Z" fill="#6CB71D"/>
<path d="M35.7296 70.619C35.2011 68.0589 34.7332 65.489 34.835 62.8553C34.8641 62.0362 34.9392 61.2172 34.995 60.4031H42.2679C41.7661 63.9024 42.2121 67.2987 43.3613 70.6165L35.7296 70.619Z" fill="#6CB71D"/>
<path d="M62.4763 60.3683C63.054 60.382 63.6147 60.5695 64.0867 60.9068C64.5587 61.2441 64.9206 61.7159 65.1265 62.2622C65.3323 62.8084 65.3726 63.4043 65.2422 63.9738C65.1119 64.5433 64.8168 65.0606 64.3947 65.4598C63.9725 65.859 63.4423 66.122 62.8718 66.2152C62.3013 66.3084 61.7163 66.2276 61.1913 65.9831C60.6664 65.7386 60.2253 65.3415 59.9244 64.8425C59.6235 64.3434 59.4763 63.765 59.5017 63.181C59.5351 62.4117 59.8653 61.6863 60.4214 61.1605C60.9775 60.6346 61.7152 60.3502 62.4763 60.3683Z" fill="#6CB71D"/>
<path d="M46.4129 34.6548C46.1416 35.81 45.5038 36.8435 44.5971 37.5975C42.3741 38.7942 40.0079 38.5784 37.7194 38.056C35.8575 37.6245 34.8369 35.8098 34.8296 33.6715C34.8296 32.4846 34.8296 32.4846 33.6369 32.4846C29.4671 32.4846 25.2949 32.5043 21.1251 32.465C20.4244 32.465 20.2959 32.6661 20.3008 33.3282C20.3202 36.6583 18.6305 38.3552 15.3625 38.3577C14.6061 38.3577 13.8522 38.3577 13.0958 38.3577C10.6157 38.3233 8.73204 36.4449 8.71264 33.9437C8.69325 30.03 8.69325 26.1171 8.71264 22.205C8.72719 19.7086 10.6206 17.8401 13.0909 17.8008C14.0291 17.8008 14.9649 17.8008 15.9031 17.8008C18.4292 17.8302 20.2669 19.7086 20.3105 22.2785C20.3275 23.6714 20.3275 23.6714 21.6633 23.6714C25.7846 23.6714 29.8841 23.6542 33.9932 23.6861C34.6551 23.6861 34.9096 23.5561 34.8296 22.8475C34.5096 19.9931 36.6963 17.5237 39.8455 17.7886C40.6261 17.8548 41.4165 17.7886 42.2019 17.8033C44.4783 17.8646 46.3911 19.7086 46.4129 22.0014C46.4614 26.2168 46.4202 30.437 46.4129 34.6548ZM11.6097 28.0339C11.6097 29.9294 11.6097 31.825 11.6097 33.7205C11.6097 34.851 12.1648 35.3905 13.2897 35.4101C14.1358 35.4248 14.9867 35.4322 15.828 35.4101C16.8316 35.3807 17.3989 34.8216 17.4038 33.799C17.4183 29.9785 17.4183 26.1579 17.4038 22.3374C17.4038 21.3197 16.8244 20.768 15.8158 20.741C15.0013 20.7214 14.1843 20.741 13.3673 20.741C12.1382 20.7557 11.617 21.283 11.6097 22.5385C11.6024 24.3678 11.6097 26.2021 11.6097 28.0339ZM37.7315 28.0756C37.7315 29.9711 37.7315 31.8642 37.7315 33.7598C37.7315 34.8363 38.2964 35.3856 39.3606 35.4101C40.2382 35.4273 41.1134 35.4346 41.9886 35.4101C42.9413 35.3807 43.5183 34.8191 43.5232 33.853C43.5393 29.9997 43.5393 26.1489 43.5232 22.3006C43.5232 21.3344 42.9413 20.7778 41.9886 20.7459C41.174 20.7189 40.357 20.7459 39.54 20.7459C38.2503 20.7459 37.7364 21.2731 37.7315 22.5826C37.7267 24.4071 37.7315 26.2413 37.7315 28.0756ZM27.4816 29.5469H32.6453C34.8587 29.5469 34.8272 29.5469 34.8442 27.3399C34.8442 26.7391 34.6866 26.5846 34.0975 26.5895C30.2332 26.6165 26.3664 26.6042 22.5021 26.6042C20.2547 26.6042 20.2717 26.6042 20.3032 28.8946C20.3032 29.412 20.4487 29.5567 20.9578 29.5518C23.1324 29.5273 25.307 29.542 27.4816 29.542V29.5469Z" fill="#333333"/>
<path d="M45.1622 60.3834L42.2773 60.3981H35.0044C31.1983 60.3851 27.3905 60.3761 23.5811 60.3712C23.0963 60.3712 22.6114 60.3368 22.2381 59.9592C22.0197 59.7663 21.8678 59.5079 21.8046 59.2217C21.7414 58.9355 21.7701 58.6363 21.8865 58.3677C22.1581 57.6934 22.6866 57.4236 23.392 57.4261C25.9327 57.4359 28.4717 57.4359 31.0092 57.4261C32.5195 57.4261 34.0299 57.4015 35.5402 57.3893H43.007C43.9646 57.5242 44.9683 57.198 45.8944 57.6688C46.7889 59.0028 46.5853 59.7459 45.1622 60.3834Z" fill="#333333"/>
<path d="M42.4253 44.1864C43.2108 44.1987 43.9963 44.2011 44.7817 44.2232C45.7514 44.2502 46.4254 44.8534 46.4254 45.6945C46.4254 46.5356 45.7587 47.1438 44.7842 47.1658C43.1526 47.1904 41.521 47.1904 39.8895 47.2002L23.9279 47.1683C23.6265 47.1888 23.3239 47.1823 23.0236 47.1487C22.243 47.0015 21.7775 46.516 21.7775 45.7019C21.7775 44.8877 22.2406 44.3997 23.0212 44.2551C23.3213 44.2194 23.624 44.212 23.9255 44.233L42.4253 44.1864Z" fill="#333333"/>
<path d="M14.0947 47.6419C15.2559 45.2902 16.3396 43.0808 17.4354 40.8787C17.8863 39.9763 18.5772 39.6281 19.3239 39.8978C19.5195 39.9596 19.6995 40.0637 19.8512 40.203C20.003 40.3422 20.123 40.5133 20.2028 40.7042C20.2827 40.8951 20.3204 41.1013 20.3135 41.3084C20.3066 41.5156 20.2551 41.7187 20.1627 41.9037C18.7356 44.8627 17.281 47.8054 15.799 50.7317C15.2971 51.7126 14.2474 51.8646 13.4474 51.0848C11.9928 49.6625 10.5625 48.2084 9.15153 46.7395C8.99437 46.6096 8.86581 46.4479 8.77412 46.2647C8.68244 46.0816 8.62966 45.8811 8.61918 45.6761C8.60869 45.471 8.64074 45.2661 8.71325 45.0744C8.78577 44.8826 8.89715 44.7084 9.04023 44.5628C9.18331 44.4172 9.35493 44.3035 9.54405 44.229C9.73317 44.1545 9.93561 44.1209 10.1383 44.1303C10.3411 44.1397 10.5396 44.1919 10.7212 44.2835C10.9028 44.3752 11.0635 44.5043 11.1928 44.6625C12.1504 45.5968 13.0619 46.5752 14.0947 47.6419Z" fill="#333333"/>
<path d="M14.0753 60.8859L17.0572 54.8682C17.1785 54.623 17.2997 54.3778 17.4209 54.1326C17.9421 53.1173 18.7203 52.7765 19.5349 53.2081C20.3494 53.6397 20.524 54.4342 20.044 55.4151C19.4234 56.7 18.7785 57.9752 18.1457 59.2552C17.4185 60.7265 16.6912 62.1979 15.9639 63.6692C15.3093 64.9664 14.296 65.1552 13.2971 64.1596C11.9638 62.8338 10.6409 61.4957 9.32857 60.1454C8.57946 59.3778 8.5237 58.522 9.14917 57.8869C9.77464 57.2518 10.628 57.3008 11.3795 58.061C12.2644 58.9487 13.1226 59.883 14.0753 60.8859Z" fill="#333333"/>
</svg>
